<?xml version="1.0" encoding="utf-8"?>
<!-- Generator: Adobe Illustrator 16.0.4, SVG Export Plug-In . SVG Version: 6.00 Build 0)  -->
<!DOCTYPE svg PUBLIC "-//W3C//DTD SVG 1.1//EN" "http://www.w3.org/Graphics/SVG/1.1/DTD/svg11.dtd">
<svg version="1.1" id="图层_1" xmlns="http://www.w3.org/2000/svg" xmlns:xlink="http://www.w3.org/1999/xlink" x="0px" y="0px"
	 width="72.645px" height="72.645px" viewBox="8 0 78 72.645" enable-background="new 0 0 72.645 72.645"
	 xml:space="preserve">
<g>
	<polygon fill="#00AA71" points="60.865,42.147 72.676,48.965 60.865,55.785 	"/>
	<polygon fill="#00AA71" points="61.799,40.54 73.602,33.723 73.602,47.348 	"/>
	<polygon fill="#00AA71" points="60.865,25.289 72.676,32.104 60.865,38.928 	"/>
	<polygon fill="#00AA71" points="18,15.248 29.801,8.429 29.801,22.063 	"/>
	<polygon fill="#00AA71" points="17.062,16.858 28.868,23.679 17.062,30.49 	"/>
	<polygon fill="#00AA71" points="17.062,33.72 28.872,40.54 17.062,47.357 	"/>
	<polygon fill="#00AA71" points="60.865,8.425 72.678,15.248 60.865,22.068 	"/>
	<polygon fill="#00AA71" points="61.799,23.679 73.602,16.866 73.602,30.49 	"/>
	<polygon fill="#00AA71" points="47.197,15.248 59.006,8.429 59.006,22.061 	"/>
	<polygon fill="#00AA71" points="47.197,48.96 59.006,42.147 59.006,55.778 	"/>
	<polygon fill="#00AA71" points="32.596,6.816 44.4,0 44.4,13.632 	"/>
	<polygon fill="#00AA71" points="46.26,-0.002 58.073,6.816 46.26,13.637 	"/>
	<polygon fill="#00AA71" points="46.26,50.58 58.073,57.396 46.26,64.216 	"/>
	<polygon fill="#00AA71" points="47.197,65.83 59.006,59.01 59.006,72.644 	"/>
	<polygon fill="#00AA71" points="31.658,42.147 43.473,48.965 31.658,55.785 	"/>
	<polygon fill="#00AA71" points="31.658,8.42 43.473,15.244 31.658,22.061 	"/>
	<polygon fill="#00AA71" points="17.995,32.104 29.801,25.296 29.801,38.92 	"/>
	<polygon fill="#00AA71" points="18,48.965 29.801,42.151 29.801,55.785 	"/>
	<polygon fill="#00AA71" points="32.596,57.399 44.4,50.58 44.4,64.216 	"/>

</g>
</svg>
